<?xml version="1.0" encoding="utf-8"?>
<!-- Generator: Adobe Illustrator 22.0.0, SVG Export Plug-In . SVG Version: 6.00 Build 0)  -->
<svg version="1.1" id="Layer_1" xmlns="http://www.w3.org/2000/svg" xmlns:xlink="http://www.w3.org/1999/xlink" x="0px" y="0px"
	 viewBox="0 0 384 129" style="enable-background:new 0 0 384 129;" xml:space="preserve">
<style type="text/css">
	.st0{fill:#3A72B9;}
</style>
<path class="st0" d="M377.4,80.6c-0.4,1.7-1.5,3.3-2.6,4.8c-2.2,2.9-5.2,4.6-8.7,3c-3.4-1.5-3.1-4.6-2.5-7.8
	c3.1-14.8,6.1-29.6,9.3-44.8c-4.6,0-9.1,0.2-13.5-0.1c-3.2-0.2-5.8,0.2-5.9,5.6c-2.3-4.8-5.3-5.6-8.7-5.9c-10.3-0.7-18,3.7-24,11.6
	c-6.7,8.9-10.1,19-10.6,30.1c-0.2,3.6-1.4,6.4-3.8,8.9c-2.3,2.3-5.1,2.5-7.9,1.5c-2.7-1-2.5-3.6-2.3-6c0.2-2.1,0.7-4.3,0.9-6.4
	c1.4-12.3-1.5-15.7-13.8-16.3c-0.6,0-1.2-0.1-2.4-0.2c4.6-5,8.3-10,13.7-13.3c2.6,5.4,5.6,6.9,10.3,5.5c3.6-1.1,5.7-4.9,5-9.2
	c-0.7-4.6-4.3-7.1-9.5-6.9c-3.6,0.2-6.7,1.8-9.4,4c-6.8,5.7-12.1,12.8-18.5,18.9c-0.8,0.8-1.3,2.5-2.9,1.8
	c1.7-7.8,3.4-15.6,5.2-23.7c-4.9,0-9.6,0.3-14.2-0.1c-3.4-0.3-4.5,0.9-5.1,4.1c-3,15-6.3,29.9-9.4,44.8c-0.5,2.2-1,3.7-3.8,3.4
	c-2.4-0.3-4.2-1-4.2-3.8c0-1.8,0-3.7,0.3-5.5c2.4-11.5,4.9-23.1,7.4-34.6c1.8-8.4,1.9-8.4-6.5-8.4c-2.2,0-4.4,0.3-6.5-0.1
	c-3.1-0.5-4.1,1-4.6,3.7c-1,5.4-2,10.8-3.2,16.1c-0.8,3.7-1.9,7.5-4.8,10.2c-2.1,2-4.7,3.6-7.6,2c-2.6-1.4-2.3-4.2-1.8-6.7
	c1.6-8.3,3.2-16.6,4.9-25.2c-5.2,0-10.2,0.1-15.2-0.1c-2.5-0.1-3.3,0.8-3.7,3.3c-1.4,7.8-3.1,15.6-4.8,23.4
	c-1.6,7.5-2.8,15.1-7.1,21.6c-2.3,3.4-5.6,5.1-9.4,3.5c-3.6-1.6-2.4-5.1-1.8-8c3-14.5,6-28.9,9.1-43.7c-5.3,0-10.3,0.1-15.3-0.1
	c-2.5-0.1-3.3,0.7-3.8,3.2C161.3,51,158.6,63,156,75c-0.7,3.4-1.9,6.7-4.1,9.5c-1.9,2.5-4.5,4.3-7.8,3.2c-3.4-1.1-2.3-4.3-2.2-6.9
	c0-1.3,0.2-2.7,0.5-4c1.9-9.1,3.8-18.2,5.7-27.3c0.9-4.5,4.3-11.2,2.1-12.9c-3-2.4-9.2-0.6-14-0.9c-2.6-0.1-3.8,0.6-4.3,3.4
	c-1.4,7.5-3.3,14.9-4.7,22.4c-1.4,7.7-3.9,15.2-4.1,23c-0.3,12.7,8.6,18.8,20.5,14.6c5.3-1.9,8.5-6.2,12-10.3
	c2.8,9,7,12.2,14.5,11.4c8.1-0.8,13.7-5.3,18.2-11.8c2.6-3.9,4.1-8.4,6.2-12.9c3.6,4.3,8,5.4,12.9,5c4.8-0.3,8.6-2.9,12.4-5.7
	c0.6,3.3-0.4,6-0.6,8.8c-0.8,10.7,6.2,18,15.5,16.5c3.7-0.6,6.8-3.2,11.2-0.9c2.9,1.5,7.2,0,10.8,0.4c3.3,0.3,4.6-0.9,5.2-4.2
	c1.1-6.9,2.7-13.7,4.1-20.5c0.8-3.7,6.5-8,9.7-7c4.7,1.5,4.2,5.3,3.6,9.1c-0.3,2-0.5,4-0.8,5.9c-1.7,11.6,5.9,18.9,17.5,17.1
	c6.6-1,10.9-5.2,15.1-10.6c2.6,5.9,6.4,9.5,12.4,10.5c9.9,1.7,16.2-3.9,22-10.7c4.4,10.4,11.4,13.5,20.9,9.4
	c9.7-4.1,14.1-12.4,17.3-21.7C380.3,76.1,378.3,77,377.4,80.6z M351.6,49.8c-1.8,8.8-3.7,17.5-5.6,26.2c-0.8,3.6-2.2,7-5,9.5
	c-2.4,2.2-5.2,3.3-8.2,2.1c-3-1.2-3.7-4-3.8-7c0-1.2,0-2.3,0-3.5c0.5-9.5,2.6-18.7,7.8-26.9c2-3.1,4.4-5.9,8.2-6.8
	C349.4,42.4,352.6,45.2,351.6,49.8z"/>
<path class="st0" d="M117.9,46.9c-1.4-8.2-7.7-12.2-16-11.6c-4.8,0.3-8.9,2.1-13.7,5.3c0.6-2.4,0.7-3.6,1.2-4.8c1.7-4,0.4-5.4-3.8-5
	c-3.1,0.3-6.4,0.3-9.5,0c-3.2-0.3-4.4,1-4.9,3.9c-2.6,12.7-5.5,25.3-7.9,38c-0.7,4-2.6,6.8-5.4,9.2c-5.2,4.5-11.2,7-18.1,7.6
	c-9.9,0.8-16-4-16.8-14.1c-1.5-19.2,2.7-37.3,11.9-54.2c1.7-3.1,3.8-5.9,6.5-8.2c4.4-3.7,9.5-4.5,12.7-1.7c4.1,3.4,3,7.7,1.5,11.9
	c-0.4,1.1-1,2.1-1.7,3c-2.7,3.9-2.3,4.9,2.5,6c4.4,1,7.8-0.8,9.6-5c3.7-8.7-0.3-18.5-9.2-21.7c-10-3.6-19.7-2.3-28.7,3.1
	C18.2,14.7,12.4,24,8.4,34.4C2.3,50.5-1,67,2.9,84.2c1.9,8.5,7.1,14.2,15.6,16.4c11.5,2.9,22.4,0.9,32.5-5.4c2.6-1.6,5-3.6,8.7-6.3
	c-3.1,15-6,28.7-8.9,42.9c5.3-1.3,9.8-2.7,14.5-3.3c3.9-0.5,5.1-2.5,5.8-6c1.6-8.5,3.5-17,5.4-25.9c2.6,2.1,4.9,3.4,7.6,3.7
	c10.7,1.2,19.6-2.4,25.5-11.3C118.1,76.2,120.5,61.9,117.9,46.9z M101.3,57.5c-0.3,7.9-1.8,15.5-5.3,22.5c-2.3,4.5-5.4,8.4-11,9.2
	c-4.6,0.7-6.7-1.3-5.7-5.8c2.1-9.9,4.2-19.7,6.3-29.6c0.3-1.3,0.5-2.7,1.2-3.7c2.3-3.5,5.2-6.3,9.8-5.3c4.3,1,4.5,4.8,4.8,8.3
	C101.4,54.6,101.3,56.1,101.3,57.5z"/>
</svg>
